<?xml version="1.0" encoding="iso-8859-1"?>
<!-- Generator: Adobe Illustrator 19.0.0, SVG Export Plug-In . SVG Version: 6.00 Build 0)  -->
<svg version="1.1" id="Capa_1" xmlns="http://www.w3.org/2000/svg" xmlns:xlink="http://www.w3.org/1999/xlink" x="0px" y="0px"
	 viewBox="0 0 451 451" style="enable-background:new 0 0 451 451;" xml:space="preserve">
<g>
	<path style="fill:#4A8DC6;" d="M404.41,47.095c-34.194-34.194-81.76-49.162-132.72-46.224L161.814,450.402
		c66.783,1.945,141.799-28.358,201.262-87.821C461.609,264.047,480.115,122.799,404.41,47.095z"/>
	<path style="fill:#77AAD4;" d="M330.793,362.581c88.763-98.533,105.434-239.781,37.236-315.486
		c-25.77-28.606-59.971-43.755-97.34-46.224c-61.866,3.568-128.737,33.53-182.765,87.558
		C-10.609,186.963-29.115,328.21,46.59,403.915c30.018,30.018,70.345,45.209,114.224,46.487
		C218.015,448.466,280.564,418.338,330.793,362.581z"/>
	<circle style="fill:#1D71B8;" cx="225" cy="403.005" r="7.5"/>
	<circle style="fill:#4A8DC6;" cx="255" cy="373.005" r="7.5"/>
	<circle style="fill:#1D71B8;" cx="73.106" cy="377.398" r="7.5"/>
	<circle style="fill:#4A8DC6;" cx="200.386" cy="292.546" r="7.5"/>
	<circle style="fill:#1D71B8;" cx="242.812" cy="292.546" r="7.5"/>
	<circle style="fill:#4A8DC6;" cx="157.959" cy="377.398" r="7.5"/>
	<circle style="fill:#4A8DC6;" cx="225" cy="48.005" r="7.5"/>
	<circle style="fill:#4A8DC6;" cx="372.5" cy="225.505" r="7.5"/>
	<circle style="fill:#4A8DC6;" cx="328.358" cy="310.358" r="7.5"/>
	<circle style="fill:#4A8DC6;" cx="117.5" cy="175.505" r="7.5"/>
	<circle style="fill:#4A8DC6;" cx="87.5" cy="145.505" r="7.5"/>
</g>
<g>
</g>
<g>
</g>
<g>
</g>
<g>
</g>
<g>
</g>
<g>
</g>
<g>
</g>
<g>
</g>
<g>
</g>
<g>
</g>
<g>
</g>
<g>
</g>
<g>
</g>
<g>
</g>
<g>
</g>
</svg>
